<mxfile host="app.diagrams.net" agent="Mozilla/5.0 (Windows NT 10.0; Win64; x64) AppleWebKit/537.36 (KHTML, like Gecko) Chrome/133.0.0.0 Safari/537.36 OPR/118.0.0.0" version="26.2.14">
  <diagram name="Page-1" id="d-0BY1TiErQ0L1EPcQw4">
    <mxGraphModel dx="998" dy="638" grid="1" gridSize="10" guides="1" tooltips="1" connect="1" arrows="1" fold="1" page="1" pageScale="1" pageWidth="850" pageHeight="1100" math="0" shadow="0">
      <root>
        <mxCell id="0" />
        <mxCell id="1" parent="0" />
        <mxCell id="2jtu4vUSpaA8NrUMJJyu-1" value="C++ Ex3 Game" style="text;html=1;align=center;verticalAlign=middle;resizable=0;points=[];autosize=1;strokeColor=none;fillColor=none;fontSize=20;" vertex="1" parent="1">
          <mxGeometry x="355" y="5" width="160" height="40" as="geometry" />
        </mxCell>
        <mxCell id="2jtu4vUSpaA8NrUMJJyu-2" value="Game Board" style="swimlane;fontStyle=0;childLayout=stackLayout;horizontal=1;startSize=30;horizontalStack=0;resizeParent=1;resizeParentMax=0;resizeLast=0;collapsible=1;marginBottom=0;whiteSpace=wrap;html=1;" vertex="1" parent="1">
          <mxGeometry x="90" y="50" width="700" height="120" as="geometry" />
        </mxCell>
        <mxCell id="2jtu4vUSpaA8NrUMJJyu-3" value="Turn - method that change turns" style="text;strokeColor=none;fillColor=none;align=left;verticalAlign=middle;spacingLeft=4;spacingRight=4;overflow=hidden;points=[[0,0.5],[1,0.5]];portConstraint=eastwest;rotatable=0;whiteSpace=wrap;html=1;" vertex="1" parent="2jtu4vUSpaA8NrUMJJyu-2">
          <mxGeometry y="30" width="700" height="30" as="geometry" />
        </mxCell>
        <mxCell id="2jtu4vUSpaA8NrUMJJyu-4" value="Player - return the name of the actives players" style="text;strokeColor=none;fillColor=none;align=left;verticalAlign=middle;spacingLeft=4;spacingRight=4;overflow=hidden;points=[[0,0.5],[1,0.5]];portConstraint=eastwest;rotatable=0;whiteSpace=wrap;html=1;" vertex="1" parent="2jtu4vUSpaA8NrUMJJyu-2">
          <mxGeometry y="60" width="700" height="30" as="geometry" />
        </mxCell>
        <mxCell id="2jtu4vUSpaA8NrUMJJyu-5" value="Winner - return the player that won the game" style="text;strokeColor=none;fillColor=none;align=left;verticalAlign=middle;spacingLeft=4;spacingRight=4;overflow=hidden;points=[[0,0.5],[1,0.5]];portConstraint=eastwest;rotatable=0;whiteSpace=wrap;html=1;" vertex="1" parent="2jtu4vUSpaA8NrUMJJyu-2">
          <mxGeometry y="90" width="700" height="30" as="geometry" />
        </mxCell>
      </root>
    </mxGraphModel>
  </diagram>
</mxfile>
